<svg xmlns="http://www.w3.org/2000/svg" width="960" height="640" viewBox="0 0 960 640"><rect width="960" height="640" fill="#e8e4dd"/><g transform="translate(120 90) rotate(-2 360 230)"><rect width="720" height="450" rx="14" fill="#f5f1e9" stroke="#c5bfb4"/><path d="M14 0h692q14 0 14 14v20H0V14Q0 0 14 0" fill="#191a18"/><text x="24" y="23" fill="#bcbeb4" font-size="10">● ● ●</text><text x="30" y="83" font-family="Georgia" font-size="25" fill="#252b23">MONO</text><text x="30" y="160" font-family="Georgia" font-size="44" fill="#252b23">Room for</text><text x="30" y="215" font-family="Georgia" font-size="44" fill="#252b23">a different</text><text x="30" y="270" font-family="Georgia" font-size="44" fill="#5b6852">perspective.</text><rect x="380" y="105" width="310" height="275" fill="#b9bdab"/><rect x="460" y="140" width="150" height="240" fill="#dad2bf"/><rect x="485" y="163" width="95" height="217" fill="#727c65"/><rect x="505" y="185" width="54" height="195" fill="#afb69c"/><rect x="30" y="315" width="150" height="34" rx="17" fill="#252b23"/><text x="45" y="337" font-size="10" fill="#f5f1e9" font-family="Arial">Explore the spaces ↗</text><path d="M0 390h720v46q0 14-14 14H14Q0 450 0 436" fill="#252b23"/><text x="30" y="425" font-family="Arial" font-size="11" fill="#e5e5d6">THOUGHTFUL SPACES. LASTING CONNECTIONS.</text></g></svg>
